<svg aria-hidden="true" style="position: absolute; width: 0; height: 0; overflow: hidden;" version="1.1" xmlns="http://www.w3.org/2000/svg" xmlns:xlink="http://www.w3.org/1999/xlink">
<defs>
<symbol id="icon-info" viewBox="0 0 32 32">
<path d="M16 12c-1.105 0-2-0.895-2-2s0.895-2 2-2c1.105 0 2 0.895 2 2v0c0 1.105-0.895 2-2 2v0z"></path>
<path d="M16 29c-7.18 0-13-5.82-13-13s5.82-13 13-13c7.18 0 13 5.82 13 13v0c0 7.18-5.82 13-13 13v0zM16 5c-6.075 0-11 4.925-11 11s4.925 11 11 11c6.075 0 11-4.925 11-11v0c0-6.075-4.925-11-11-11v0z"></path>
<path d="M16 24c-1.105 0-2-0.895-2-2v0-6c0-1.105 0.895-2 2-2s2 0.895 2 2v0 6c0 1.105-0.895 2-2 2v0zM16 16v0z"></path>
</symbol>
<symbol id="icon-medal" viewBox="0 0 32 32">
<path d="M16.001 1.7l1.472 1.231 1.793-0.686 0.992 1.643 1.919-0.067 0.244 1.128 0.162 0.748 1.836 0.56-0.135 1.146-0.090 0.761 1.555 1.125-0.501 1.041-0.332 0.691 1.107 1.569-1.349 1.367 0.214 0.736 0.322 1.107-1.719 0.853-0.038 0.766-0.055 1.154-1.903 0.249-0.71 1.785-1.881-0.382-0.498 0.583-0.751 0.874-1.655-0.973-1.656 0.973-1.25-1.457-1.88 0.382-0.71-1.785-1.903-0.249-0.055-1.153-0.038-0.766-0.686-0.34-1.033-0.513 0.322-1.107 0.214-0.736-0.538-0.545-0.811-0.821 1.107-1.569-0.332-0.691-0.502-1.040 1.557-1.125-0.091-0.761-0.135-1.146 1.835-0.561 0.162-0.748 0.244-1.128 1.919 0.067 0.396-0.655 0.598-0.987 1.793 0.686 0.586-0.491 0.888-0.742zM16.001 0l-1.723 1.439-2.096-0.802-1.161 1.919-2.243-0.077-0.476 2.192-2.146 0.655 0.263 2.228-1.819 1.317 0.973 2.024-1.292 1.835 1.577 1.597-0.627 2.155 2.010 0.998 0.108 2.243 2.225 0.29 0.829 2.085 2.2-0.446 1.461 1.703 1.936-1.136 1.935 1.136 1.461-1.703 2.2 0.446 0.829-2.085 2.224-0.29 0.108-2.243 2.010-0.998-0.627-2.155 1.577-1.597-1.292-1.835 0.971-2.024-1.817-1.316 0.262-2.228-2.147-0.655-0.476-2.192-2.243 0.077-1.16-1.919-2.097 0.802-1.72-1.44zM21.338 23.378l-1.449-0.294-1.673 1.949-2.215-1.301-2.215 1.301-0.711-0.827-0.962-1.123-2.228 0.451v8.465h0.129l5.987-5.393 5.986 5.393h0.13v-8.464l-0.779-0.158zM10.067 12.294c-0.361 0-0.652-0.292-0.652-0.652 0-2.969 2.020-5.499 4.911-6.153 0.35-0.078 0.701 0.141 0.78 0.492s-0.142 0.701-0.492 0.78c-2.257 0.509-3.895 2.562-3.895 4.879 0.001 0.362-0.29 0.654-0.651 0.654z"></path>
</symbol>
<symbol id="icon-sound" viewBox="0 0 32 32">
<path d="M16 28.11c-0.208-0-0.398-0.080-0.54-0.21l0.001 0.001-7.771-7.101h-3c-0.442 0-0.8-0.358-0.8-0.8v0-8c0-0.442 0.358-0.8 0.8-0.8v0h3l7.771-7.101c0.142-0.13 0.331-0.209 0.539-0.209 0.442 0 0.8 0.358 0.8 0.799v22.621c0 0.442-0.358 0.8-0.8 0.8v0zM5.49 19.2h2.51c0.208 0 0.398 0.080 0.54 0.21l-0.001-0.001 6.661 6.080v-18.986l-6.661 6.080c-0.141 0.132-0.33 0.214-0.539 0.216h-2.511z"></path>
<path d="M19.104 19.605c-0.442-0-0.8-0.358-0.8-0.8 0-0.22 0.089-0.42 0.233-0.565l-0 0c0.572-0.574 0.926-1.365 0.926-2.24s-0.354-1.666-0.927-2.24l0 0c-0.139-0.144-0.225-0.34-0.225-0.556 0-0.442 0.358-0.8 0.8-0.8 0.216 0 0.412 0.086 0.556 0.225l-0-0c0.861 0.863 1.394 2.055 1.394 3.371s-0.533 2.508-1.394 3.371l0-0c-0.145 0.144-0.344 0.234-0.565 0.234v0z"></path>
<path d="M21.933 22.434c-0 0-0.001 0-0.001 0-0.442 0-0.8-0.358-0.8-0.8 0-0.221 0.090-0.422 0.235-0.566h0c1.297-1.297 2.099-3.088 2.099-5.067s-0.802-3.771-2.099-5.067l-0-0c-0.151-0.146-0.244-0.35-0.244-0.575 0-0.442 0.358-0.8 0.8-0.8 0.226 0 0.43 0.094 0.575 0.244l0 0c1.587 1.586 2.568 3.778 2.568 6.198s-0.981 4.612-2.568 6.198v0c-0.144 0.145-0.344 0.235-0.565 0.235h-0z"></path>
<path d="M24.32 24.821c-0.442-0-0.8-0.358-0.8-0.8 0-0.22 0.089-0.42 0.233-0.565l-0 0c1.908-1.908 3.088-4.544 3.088-7.456s-1.18-5.548-3.088-7.456v0c-0.151-0.146-0.244-0.35-0.244-0.575 0-0.442 0.358-0.8 0.8-0.8 0.226 0 0.43 0.094 0.575 0.244l0 0c2.198 2.198 3.557 5.234 3.557 8.587s-1.359 6.39-3.557 8.587v0c-0.145 0.144-0.344 0.234-0.565 0.234v0z"></path>
</symbol>
<symbol id="icon-pen" viewBox="0 0 32 32">
<path d="M18.543 7.486l5.972 5.972-13.032 13.032-6.448 1.488c-0.065 0.015-0.129 0.021-0.193 0.021-0.524 0-0.944-0.492-0.819-1.035l1.488-6.447 13.032-13.032zM19.486 6.543l1.553-1.553c0.659-0.66 1.524-0.991 2.388-0.991 0.865 0 1.729 0.331 2.389 0.991l1.195 1.195c1.319 1.319 1.319 3.457 0 4.777l-1.553 1.553-5.972-5.972z"></path>
</symbol>
<symbol id="icon-back" viewBox="0 0 34 32">
<path d="M17.271 4.16l-2.301-2.481-10.224 9.483c-1.409 1.307-1.404 3.474 0.010 4.784l10.201 9.45 2.299-2.482-10.109-9.365 10.124-9.39z"></path>
<path d="M30.769 11.844h-23.685v3.384h23.685v-3.384z"></path>
</symbol>
<symbol id="icon-delete" viewBox="0 0 32 32">
<path d="M7.999 25.333c0 1.467 1.2 2.667 2.667 2.667h10.667c1.467 0 2.667-1.2 2.667-2.667v-16h-16v16zM25.333 5.333h-4.667l-1.333-1.333h-6.667l-1.333 1.333h-4.667v2.667h18.667v-2.667z"></path>
</symbol>
<symbol id="icon-minus" viewBox="0 0 32 32">
<path d="M25.333 17.333h-18.667v-2.667h18.667v2.667z"></path>
</symbol>
<symbol id="icon-plus" viewBox="0 0 32 32">
<path d="M25.333 17.333h-8v8h-2.667v-8h-8v-2.667h8v-8h2.667v8h8v2.667z"></path>
</symbol>
<symbol id="icon-check" viewBox="0 0 32 32">
<path d="M10.869 27.463l-10.4-10.4c-0.625-0.625-0.625-1.638 0-2.263l2.263-2.263c0.625-0.625 1.638-0.625 2.263 0l7.006 7.006 15.006-15.006c0.625-0.625 1.638-0.625 2.263 0l2.263 2.263c0.625 0.625 0.625 1.638 0 2.263l-18.4 18.4c-0.625 0.625-1.638 0.625-2.263 0z"></path>
</symbol>
<symbol id="icon-store" viewBox="0 0 32 32">
<path d="M24 29h-16c-1.657 0-3-1.343-3-3v0-10c0-0.552 0.448-1 1-1s1 0.448 1 1v0 10c0 0.552 0.448 1 1 1v0h16c0.552 0 1-0.448 1-1v0-10c0-0.552 0.448-1 1-1s1 0.448 1 1v0 10c0 1.657-1.343 3-3 3v0z"></path>
<path d="M15 29h-5c-0.552 0-1-0.448-1-1v0-6c0-1.657 1.343-3 3-3v0h1c1.657 0 3 1.343 3 3v0 6c0 0.552-0.448 1-1 1v0zM11 27h3v-5c0-0.552-0.448-1-1-1v0h-1c-0.552 0-1 0.448-1 1v0z"></path>
<path d="M25 17c-2.209 0-4-1.791-4-4v0c0-0.552 0.448-1 1-1s1 0.448 1 1v0c0 1.105 0.895 2 2 2s2-0.895 2-2v0-0.76l-2.62-5.24h-16.76l-2.62 5.24v0.76c0 1.105 0.895 2 2 2s2-0.895 2-2v0c0-0.552 0.448-1 1-1s1 0.448 1 1v0c0 2.209-1.791 4-4 4s-4-1.791-4-4v0-1c0.001-0.164 0.042-0.319 0.113-0.456l-0.003 0.006 3-6c0.168-0.328 0.503-0.549 0.89-0.55h18c0.387 0.001 0.722 0.222 0.887 0.544l0.003 0.006 3 6c0.068 0.131 0.109 0.286 0.11 0.45v1c0 2.209-1.791 4-4 4v0z"></path>
<path d="M13 17c-2.209 0-4-1.791-4-4v0c0-0.552 0.448-1 1-1s1 0.448 1 1v0c0 1.105 0.895 2 2 2s2-0.895 2-2v0c0-0.552 0.448-1 1-1s1 0.448 1 1v0c0 2.209-1.791 4-4 4v0z"></path>
<path d="M19 17c-2.209 0-4-1.791-4-4v0c0-0.552 0.448-1 1-1s1 0.448 1 1v0c0 1.105 0.895 2 2 2s2-0.895 2-2v0c0-0.552 0.448-1 1-1s1 0.448 1 1v0c0 2.209-1.791 4-4 4v0z"></path>
<path d="M22 22h-3c-0.552 0-1-0.448-1-1s0.448-1 1-1v0h3c0.552 0 1 0.448 1 1s-0.448 1-1 1v0z"></path>
</symbol>
<symbol id="icon-adjust" viewBox="0 0 32 32">
<path d="M12.938 12.5c0-0.69-0.56-1.25-1.25-1.25h-5c-0.69 0-1.25 0.56-1.25 1.25v2.242h-5.438v2.5h5.438v2.133c0 0.69 0.56 1.25 1.25 1.25h5c0.69 0 1.25-0.56 1.25-1.25v-2.133h19.063v-2.5h-19.063v-2.242zM10.438 18.125h-2.5v-4.375h2.5v4.375z"></path>
<path d="M26.937 23.875c0-0.69-0.56-1.25-1.25-1.25h-5c-0.69 0-1.25 0.56-1.25 1.25v2.188h-19.438v2.5h19.438v2.188c0 0.69 0.56 1.25 1.25 1.25h5c0.69 0 1.25-0.56 1.25-1.25v-2.188h5.063v-2.5h-5.063v-2.188zM24.438 29.5h-2.5v-4.375h2.5v4.375z"></path>
<path d="M27.063 3.5v-2.25c0-0.69-0.56-1.25-1.25-1.25h-5c-0.69 0-1.25 0.56-1.25 1.25v2.25h-19.562v2.5h19.562v2.125c0 0.69 0.56 1.25 1.25 1.25h5c0.69 0 1.25-0.56 1.25-1.25v-2.125h4.937v-2.5h-4.937zM24.562 6.875h-2.5v-4.375h2.5v4.375z"></path>
</symbol>
<symbol id="icon-bar" viewBox="0 0 32 32">
<path d="M28.875 7h-3c-1.723 0-3.125 1.402-3.125 3.125v18.75c0 1.723 1.402 3.125 3.125 3.125h3c1.723 0 3.125-1.402 3.125-3.125v-18.75c0-1.723-1.402-3.125-3.125-3.125zM29.5 28.875c0 0.345-0.28 0.625-0.625 0.625h-3c-0.345 0-0.625-0.28-0.625-0.625v-18.75c0-0.345 0.28-0.625 0.625-0.625h3c0.345 0 0.625 0.28 0.625 0.625v18.75z"></path>
<path d="M6.125 16.5h-3c-1.723 0-3.125 1.402-3.125 3.125v9.25c0 1.723 1.402 3.125 3.125 3.125h3c1.723 0 3.125-1.402 3.125-3.125v-9.25c0-1.723-1.402-3.125-3.125-3.125zM6.75 28.875c0 0.345-0.28 0.625-0.625 0.625h-3c-0.345 0-0.625-0.28-0.625-0.625v-9.25c0-0.345 0.28-0.625 0.625-0.625h3c0.345 0 0.625 0.28 0.625 0.625v9.25z"></path>
<path d="M17.5 0h-3c-1.723 0-3.125 1.402-3.125 3.125v25.75c0 1.723 1.402 3.125 3.125 3.125h3c1.723 0 3.125-1.402 3.125-3.125v-25.75c0-1.723-1.402-3.125-3.125-3.125zM18.125 28.875c0 0.345-0.28 0.625-0.625 0.625h-3c-0.345 0-0.625-0.28-0.625-0.625v-25.75c0-0.345 0.28-0.625 0.625-0.625h3c0.345 0 0.625 0.28 0.625 0.625v25.75z"></path>
</symbol>
<symbol id="icon-chat" viewBox="0 0 32 32">
<path d="M26.667 2.667h-21.333c-1.467 0-2.667 1.2-2.667 2.667v24l5.333-5.333h18.667c1.467 0 2.667-1.2 2.667-2.667v-16c0-1.467-1.2-2.667-2.667-2.667zM26.667 21.333h-18.667l-2.667 2.667v-18.667h21.333v16z"></path>
</symbol>
<symbol id="icon-clock" viewBox="0 0 32 32">
<path stroke-linejoin="round" stroke-linecap="round" stroke-miterlimit="4" stroke-width="2.6667" d="M16 29.333c7.364 0 13.333-5.97 13.333-13.333s-5.97-13.333-13.333-13.333c-7.364 0-13.333 5.97-13.333 13.333s5.97 13.333 13.333 13.333z"></path>
<path stroke-linejoin="round" stroke-linecap="round" stroke-miterlimit="4" stroke-width="2.6667" d="M16 8v8l5.333 2.667"></path>
</symbol>
<symbol id="icon-card" viewBox="0 0 32 32">
<path d="M28.25 4.25h-24.5c-2.068 0-3.75 1.682-3.75 3.75v16c0 2.068 1.682 3.75 3.75 3.75h24.5c2.068 0 3.75-1.682 3.75-3.75v-16c0-2.068-1.682-3.75-3.75-3.75zM29.5 24c0 0.689-0.561 1.25-1.25 1.25h-24.5c-0.689 0-1.25-0.561-1.25-1.25v-10.625h27v10.625zM29.5 9.625h-27v-1.625c0-0.689 0.561-1.25 1.25-1.25h24.5c0.689 0 1.25 0.561 1.25 1.25v1.625z"></path>
<path d="M20.75 15.25h-16.5v2.5h16.5v-2.5z"></path>
</symbol>
<symbol id="icon-expand" viewBox="0 0 32 32">
<path stroke-linejoin="miter" stroke-linecap="butt" stroke-miterlimit="4" stroke-width="0.4364" d="M0 1.143v8h2.286v-6.857h6.857v-2.286h-8c-0.632 0-1.143 0.511-1.143 1.143v0z"></path>
<path stroke-linejoin="miter" stroke-linecap="butt" stroke-miterlimit="4" stroke-width="0.4364" d="M30.857 0h-8v2.286h6.857v6.857h2.286v-8c0-0.632-0.511-1.143-1.143-1.143v0z"></path>
<path stroke-linejoin="miter" stroke-linecap="butt" stroke-miterlimit="4" stroke-width="0.4364" d="M29.714 29.714h-6.857v2.286h8c0.632 0 1.143-0.511 1.143-1.143v-8h-2.286v6.857z"></path>
<path stroke-linejoin="miter" stroke-linecap="butt" stroke-miterlimit="4" stroke-width="0.4364" d="M2.286 22.857h-2.286v8c0 0.632 0.511 1.143 1.143 1.143h8v-2.286h-6.857v-6.857z"></path>
</symbol>
<symbol id="icon-idea" viewBox="0 0 32 32">
<path d="M2.813 9.5h-2.813v2.5h2.813v-2.5z"></path>
<path d="M3.803 15.601l-2.652 1.336 1.124 2.233 2.652-1.336-1.124-2.233z"></path>
<path d="M2.276 2.17l-1.124 2.233 2.59 1.304 1.124-2.233-2.59-1.304z"></path>
<path d="M32 9.5h-2.813v2.5h2.813v-2.5z"></path>
<path d="M28.197 15.602l-1.125 2.233 2.652 1.336 1.125-2.233-2.652-1.336z"></path>
<path d="M29.724 2.17l-2.59 1.304 1.125 2.233 2.59-1.304-1.125-2.233z"></path>
<path d="M26.75 10.679c-0.039-5.895-4.846-10.679-10.75-10.679s-10.711 4.784-10.75 10.679l-0 0.071h0c0.020 4.293 1.825 6.669 3.419 8.766 1.333 1.754 2.386 3.14 2.386 5.447v3.287c0 2.068 1.682 3.75 3.75 3.75h2.389c2.068 0 3.75-1.682 3.75-3.75v-3.287c0-2.307 1.053-3.693 2.386-5.447 1.594-2.098 3.399-4.473 3.419-8.766l0-0.071h-0zM18.444 28.25c0 0.689-0.561 1.25-1.25 1.25h-2.389c-0.689 0-1.25-0.561-1.25-1.25v-2.438h4.889v2.438zM21.34 18.004c-1.157 1.522-2.345 3.086-2.75 5.309h-5.179c-0.405-2.222-1.594-3.786-2.75-5.309-1.491-1.962-2.899-3.815-2.91-7.286 0.017-4.535 3.712-8.218 8.25-8.218s8.233 3.684 8.25 8.218c-0.011 3.47-1.419 5.324-2.91 7.286z"></path>
</symbol>
<symbol id="icon-arrowdown" viewBox="0 0 32 32">
<path d="M9.88 11.453l6.12 6.107 6.12-6.107 1.88 1.88-8 8-8-8 1.88-1.88z"></path>
</symbol>
<symbol id="icon-arrowleft" viewBox="0 0 32 32">
<path d="M20.041 21.847l-5.428-6.044 5.428-6.044-1.671-1.857-7.111 7.901 7.111 7.901 1.671-1.857z"></path>
</symbol>
<symbol id="icon-menu" viewBox="0 0 32 32">
<path d="M4 24h24v-2.667h-24v2.667zM4 17.333h24v-2.667h-24v2.667zM4 8v2.667h24v-2.667h-24z"></path>
</symbol>
<symbol id="icon-minimize" viewBox="0 0 32 32">
<path d="M9.143 8v-8h-2.286v6.857h-6.857v2.286h8c0.632 0 1.143-0.511 1.143-1.143z"></path>
<path d="M24 9.143h8v-2.286h-6.857v-6.857h-2.286v8c0 0.632 0.511 1.143 1.143 1.143z"></path>
<path d="M25.143 25.143h6.857v-2.286h-8c-0.632 0-1.143 0.511-1.143 1.143v8h2.286v-6.857z"></path>
<path d="M6.857 32h2.286v-8c0-0.632-0.511-1.143-1.143-1.143h-8v2.286h6.857v6.857z"></path>
<path stroke-linejoin="miter" stroke-linecap="butt" stroke-miterlimit="4" stroke-width="0.4364" d="M9.143 8v-8h-2.286v6.857h-6.857v2.286h8c0.632 0 1.143-0.511 1.143-1.143z"></path>
<path stroke-linejoin="miter" stroke-linecap="butt" stroke-miterlimit="4" stroke-width="0.4364" d="M24 9.143h8v-2.286h-6.857v-6.857h-2.286v8c0 0.632 0.511 1.143 1.143 1.143z"></path>
<path stroke-linejoin="miter" stroke-linecap="butt" stroke-miterlimit="4" stroke-width="0.4364" d="M25.143 25.143h6.857v-2.286h-8c-0.632 0-1.143 0.511-1.143 1.143v8h2.286v-6.857z"></path>
<path stroke-linejoin="miter" stroke-linecap="butt" stroke-miterlimit="4" stroke-width="0.4364" d="M6.857 32h2.286v-8c0-0.632-0.511-1.143-1.143-1.143h-8v2.286h6.857v6.857z"></path>
</symbol>
<symbol id="icon-user" viewBox="0 0 32 32">
<path d="M16 13.714c2.526 0 4.571-2.046 4.571-4.571s-2.046-4.571-4.571-4.571c-2.526 0-4.571 2.046-4.571 4.571s2.046 4.571 4.571 4.571zM23.303 16.64c-1.92-0.983-4.411-1.783-7.303-1.783s-5.383 0.8-7.303 1.783c-1.143 0.583-1.84 1.76-1.84 3.040v2.034c0 0.629 0.514 1.143 1.143 1.143h16c0.629 0 1.143-0.514 1.143-1.143v-2.034c0-1.28-0.697-2.457-1.84-3.040z"></path>
</symbol>
<symbol id="icon-photo" viewBox="0 0 32 32">
<path d="M18.827 5.333l2.44 2.667h5.4v16h-21.333v-16h5.4l2.44-2.667h5.653zM20 2.667h-8l-2.44 2.667h-4.227c-1.467 0-2.667 1.2-2.667 2.667v16c0 1.467 1.2 2.667 2.667 2.667h21.333c1.467 0 2.667-1.2 2.667-2.667v-16c0-1.467-1.2-2.667-2.667-2.667h-4.227l-2.44-2.667zM16 12c2.2 0 4 1.8 4 4s-1.8 4-4 4c-2.2 0-4-1.8-4-4s1.8-4 4-4zM16 9.333c-3.68 0-6.667 2.987-6.667 6.667s2.987 6.667 6.667 6.667c3.68 0 6.667-2.987 6.667-6.667s-2.987-6.667-6.667-6.667z"></path>
</symbol>
<symbol id="icon-play" viewBox="0 0 32 32">
<path d="M3.429 32c-0.195 0-0.391-0.050-0.567-0.151-0.356-0.203-0.576-0.582-0.576-0.992v-29.716c0-0.411 0.22-0.789 0.576-0.992 0.359-0.202 0.796-0.198 1.148 0.008l25.143 14.858c0.348 0.207 0.561 0.581 0.561 0.984s-0.213 0.778-0.561 0.984l-25.143 14.858c-0.18 0.105-0.381 0.159-0.581 0.159zM4.572 3.143v25.711l21.753-12.856-21.753-12.856z"></path>
</symbol>
<symbol id="icon-plususer" viewBox="0 0 32 32">
<path d="M18.529 21.037c-0.783-0.546-1.619-0.991-2.493-1.331 1.163-1.057 1.935-2.539 2.069-4.197 1.764-1.719 4.077-2.661 6.556-2.661 1.935 0 3.793 0.583 5.374 1.685 0.566 0.395 1.345 0.256 1.74-0.31s0.256-1.345-0.31-1.74c-0.783-0.546-1.619-0.991-2.493-1.331 1.284-1.167 2.091-2.849 2.091-4.716 0-3.515-2.859-6.374-6.374-6.374s-6.374 2.859-6.374 6.374c0 1.86 0.801 3.536 2.075 4.702-0.175 0.067-0.348 0.138-0.52 0.214-0.782 0.344-1.518 0.768-2.201 1.265-0.943-2.343-3.239-4.001-5.916-4.001-3.515 0-6.374 2.859-6.374 6.374 0 1.854 0.796 3.526 2.064 4.692-3.39 1.27-6.139 3.999-7.259 7.478-0.371 1.154-0.175 2.377 0.539 3.357s1.818 1.541 3.030 1.541h10.874c0.69 0 1.25-0.56 1.25-1.25s-0.56-1.25-1.25-1.25h-10.874c-0.404 0-0.772-0.187-1.010-0.514s-0.303-0.735-0.18-1.119c1.235-3.841 5.003-6.523 9.162-6.523 1.935 0 3.793 0.583 5.374 1.685 0.566 0.395 1.345 0.256 1.74-0.31s0.256-1.345-0.31-1.74zM24.688 2.562c2.136 0 3.874 1.738 3.874 3.875s-1.738 3.875-3.874 3.875c-2.136 0-3.874-1.738-3.874-3.875s1.738-3.875 3.874-3.875zM11.752 11.116c2.136 0 3.875 1.738 3.875 3.875s-1.738 3.874-3.875 3.874-3.875-1.738-3.875-3.874c0-2.136 1.738-3.875 3.875-3.875zM32 26.122c0 0.69-0.56 1.25-1.25 1.25h-3.437v3.437c0 0.69-0.56 1.25-1.25 1.25s-1.25-0.56-1.25-1.25v-3.437h-3.437c-0.69 0-1.25-0.56-1.25-1.25s0.56-1.25 1.25-1.25h3.437v-3.437c0-0.69 0.56-1.25 1.25-1.25s1.25 0.56 1.25 1.25v3.437h3.437c0.69 0 1.25 0.56 1.25 1.25z"></path>
</symbol>
<symbol id="icon-power" viewBox="0 0 32 32">
<path d="M17.25 0h-2.5v17.25h2.5v-17.25z"></path>
<path d="M26.828 5.86c-1.986-1.986-4.422-3.359-7.078-4.025v2.6c5.241 1.607 9.063 6.492 9.063 12.252 0 7.065-5.748 12.813-12.813 12.813s-12.813-5.748-12.813-12.813c0-5.761 3.822-10.645 9.063-12.252v-2.6c-2.656 0.666-5.091 2.039-7.077 4.025-2.892 2.892-4.485 6.738-4.485 10.828s1.593 7.935 4.485 10.828c2.892 2.892 6.737 4.485 10.828 4.485s7.935-1.593 10.828-4.485c2.892-2.892 4.485-6.737 4.485-10.828s-1.593-7.935-4.485-10.828z"></path>
</symbol>
<symbol id="icon-remember" viewBox="0 0 27 32">
<path stroke-linejoin="miter" stroke-linecap="butt" stroke-miterlimit="4" stroke-width="0.4" d="M18.699 8.028l-1.841 1.841c-0.336 0.336-0.336 0.88 0 1.215s0.88 0.335 1.215 0l0.374-0.374v0.687c0 2.064-1.679 3.743-3.743 3.743s-3.743-1.679-3.743-3.743c0-2.064 1.679-3.743 3.743-3.743 0.474 0 0.859-0.385 0.859-0.859s-0.385-0.859-0.859-0.859c-3.012 0-5.462 2.45-5.462 5.462s2.45 5.462 5.462 5.462c3.012 0 5.462-2.45 5.462-5.462v-0.687l0.374 0.374c0.335 0.335 0.88 0.336 1.215 0s0.335-0.88 0-1.215l-1.841-1.841c-0.334-0.334-0.879-0.337-1.215 0z"></path>
<path stroke-linejoin="miter" stroke-linecap="butt" stroke-miterlimit="4" stroke-width="0.4" d="M25.689 13.344c0-10.958-9.623-12.010-11.252-12.010-6.223 0-10.257 5.405-10.257 9.619v1.531c-0.511 0.656-1.97 2.533-2.664 3.425-0.359 0.462-0.557 1.039-0.557 1.625 0 1.099 0.659 2.073 1.68 2.482l0.801 0.32 1.298 3.635c0.644 1.803 2.362 3.014 4.277 3.014h1.337l0.758 3.031c0.096 0.383 0.44 0.651 0.834 0.651h11.046c0.27 0 0.524-0.127 0.686-0.342s0.214-0.494 0.14-0.753l-1.755-6.143 2.85-6.413c0.517-1.164 0.779-2.399 0.779-3.671zM23.339 16.317l-2.977 6.698c-0.082 0.184-0.096 0.391-0.041 0.585l1.528 5.348h-9.236l-0.758-3.031c-0.096-0.382-0.439-0.651-0.834-0.651h-2.008c-1.19 0-2.258-0.753-2.658-1.873l-1.429-4c-0.083-0.232-0.261-0.418-0.49-0.509l-1.161-0.464c-0.595-0.238-0.781-0.971-0.405-1.455 0.725-0.932 2.281-2.934 2.725-3.505 0.194-0.25 0.301-0.561 0.301-0.877v-1.63c0-2.308 2.446-7.9 8.539-7.9 1.35 0 9.533 0.821 9.533 10.292 0 1.031-0.212 2.031-0.631 2.973z"></path>
</symbol>
<symbol id="icon-settings" viewBox="0 0 32 32">
<path d="M32 18.109v-4.217l-4.262-1.134c-0.266-0.962-0.65-1.887-1.149-2.762l2.18-3.786-2.978-2.978-3.786 2.18c-0.875-0.499-1.8-0.884-2.762-1.149l-1.134-4.262h-4.218l-1.134 4.262c-0.962 0.266-1.887 0.651-2.762 1.149l-3.786-2.18-2.978 2.978 2.18 3.786c-0.499 0.875-0.884 1.8-1.149 2.762l-4.262 1.134v4.217l4.262 1.134c0.266 0.962 0.65 1.887 1.149 2.762l-2.18 3.786 2.978 2.978 3.786-2.18c0.875 0.499 1.8 0.884 2.762 1.149l1.134 4.262h4.218l1.134-4.262c0.962-0.266 1.887-0.65 2.762-1.149l3.786 2.18 2.978-2.978-2.18-3.786c0.499-0.875 0.884-1.8 1.149-2.762l4.262-1.134zM25.63 17.216l-0.157 0.756c-0.244 1.182-0.71 2.301-1.384 3.327l-0.422 0.643 1.978 3.435-0.268 0.268-3.435-1.978-0.643 0.422c-1.026 0.674-2.145 1.139-3.327 1.384l-0.756 0.157-1.029 3.87h-0.374l-1.029-3.87-0.756-0.157c-1.182-0.245-2.301-0.71-3.327-1.384l-0.643-0.422-3.435 1.978-0.268-0.268 1.978-3.435-0.422-0.643c-0.674-1.026-1.139-2.145-1.384-3.327l-0.157-0.756-3.87-1.029v-0.374l3.87-1.029 0.157-0.756c0.245-1.182 0.71-2.301 1.384-3.327l0.422-0.643-1.978-3.435 0.268-0.268 3.435 1.978 0.643-0.422c1.026-0.673 2.145-1.139 3.327-1.384l0.756-0.157 1.029-3.87h0.374l1.029 3.87 0.756 0.157c1.182 0.245 2.301 0.71 3.327 1.384l0.643 0.422 3.435-1.978 0.268 0.268-1.978 3.435 0.422 0.643c0.674 1.026 1.139 2.145 1.384 3.327l0.157 0.756 3.87 1.029v0.374l-3.87 1.029z"></path>
<path d="M16 8.75c-3.998 0-7.25 3.252-7.25 7.25s3.252 7.25 7.25 7.25 7.25-3.252 7.25-7.25c0-3.998-3.252-7.25-7.25-7.25zM16 20.75c-2.619 0-4.75-2.131-4.75-4.75s2.131-4.75 4.75-4.75c2.619 0 4.75 2.131 4.75 4.75s-2.131 4.75-4.75 4.75z"></path>
</symbol>
<symbol id="icon-cross" viewBox="0 0 32 32">
<path d="M0.744 30.957c0.495 0.496 1.146 0.744 1.795 0.744s1.3-0.248 1.795-0.744l11.667-11.667 11.667 11.667c0.495 0.496 1.146 0.744 1.795 0.744s1.299-0.248 1.795-0.744c0.991-0.991 0.991-2.598 0-3.589l-11.668-11.667 11.069-11.069c0.992-0.991 0.992-2.598 0-3.589s-2.598-0.992-3.589 0l-11.069 11.069-11.068-11.069c-0.991-0.992-2.598-0.992-3.589 0-0.992 0.991-0.992 2.598 0 3.589l11.069 11.069-11.667 11.667c-0.992 0.991-0.992 2.598-0.001 3.59z"></path>
</symbol>
<symbol id="icon-slash" viewBox="0 0 32 32">
<path stroke-linejoin="round" stroke-linecap="round" stroke-miterlimit="4" stroke-width="2.6667" d="M16 29.333c7.364 0 13.333-5.97 13.333-13.333s-5.97-13.333-13.333-13.333c-7.364 0-13.333 5.97-13.333 13.333s5.97 13.333 13.333 13.333z"></path>
<path stroke-linejoin="round" stroke-linecap="round" stroke-miterlimit="4" stroke-width="2.6667" d="M6.573 6.573l18.853 18.853"></path>
</symbol>
<symbol id="icon-starborder" viewBox="0 0 32 32">
<path d="M16 9.507l1.92 4.533 1.6 0.133 3.293 0.28-3.72 3.227 0.36 1.573 0.747 3.213-2.827-1.707-1.373-0.853-1.373 0.827-2.827 1.707 0.747-3.213 0.36-1.573-3.72-3.227 4.893-0.413 0.627-1.48 1.293-3.027zM16 2.667l-3.747 8.84-9.587 0.813 7.28 6.307-2.187 9.373 8.24-4.973 8.24 4.973-2.187-9.373 7.28-6.307-9.587-0.813-3.747-8.84z"></path>
</symbol>
<symbol id="icon-starfill" viewBox="0 0 32 32">
<path d="M16 23.027l8.24 4.973-2.187-9.373 7.28-6.307-9.587-0.813-3.747-8.84-3.747 8.84-9.587 0.813 7.28 6.307-2.187 9.373 8.24-4.973z"></path>
</symbol>
<symbol id="icon-success" viewBox="0 0 27 32">
<path stroke-linejoin="miter" stroke-linecap="butt" stroke-miterlimit="4" stroke-width="0.4" d="M16.626 9.638l-2.881 2.881-1.304-1.304c-0.406-0.406-1.064-0.406-1.47 0s-0.406 1.064 0 1.47l2.039 2.039c0.203 0.203 0.469 0.304 0.735 0.304s0.532-0.101 0.735-0.304l3.616-3.616c0.406-0.406 0.406-1.064 0-1.47s-1.064-0.406-1.47 0z"></path>
<path stroke-linejoin="miter" stroke-linecap="butt" stroke-miterlimit="4" stroke-width="0.4" d="M14.205 1.862c-6.302 0-11.429 5.127-11.429 11.429v1.501l-1.706 5.642c-0.134 0.442 0.105 0.91 0.541 1.061l2.908 1.007v4.040c0 0.475 0.385 0.859 0.859 0.859h4.369v2.934c0 0.475 0.385 0.859 0.859 0.859h10.457c0.475 0 0.859-0.385 0.859-0.859v-8.616c2.363-2.165 3.711-5.214 3.711-8.428 0-6.302-5.127-11.429-11.429-11.429zM20.506 20.679c-0.191 0.163-0.301 0.402-0.301 0.654v8.144h-8.739v-2.934c0-0.475-0.385-0.859-0.859-0.859h-4.369v-3.792c0-0.366-0.232-0.692-0.578-0.812l-2.706-0.937 1.504-4.973c0.024-0.081 0.037-0.164 0.037-0.249v-1.628c0-5.354 4.356-9.71 9.71-9.71s9.711 4.356 9.711 9.71c0 2.845-1.243 5.538-3.409 7.388z"></path>
</symbol>
</defs>
</svg>
